<svg width="40" height="40" viewBox="0 0 40 40" fill="none" xmlns="http://www.w3.org/2000/svg">
<rect width="40" height="40" rx="20" fill="#F0F0F8"/>
<path d="M24.6667 19.3333H15.3333C14.597 19.3333 14 19.9303 14 20.6667V25.3333C14 26.0697 14.597 26.6667 15.3333 26.6667H24.6667C25.403 26.6667 26 26.0697 26 25.3333V20.6667C26 19.9303 25.403 19.3333 24.6667 19.3333Z" stroke="black" stroke-width="1.33333" stroke-linecap="round" stroke-linejoin="round"/>
<path d="M16.667 19.3333V16.6667C16.667 15.7826 17.0182 14.9348 17.6433 14.3096C18.2684 13.6845 19.1163 13.3333 20.0003 13.3333C20.8844 13.3333 21.7322 13.6845 22.3573 14.3096C22.9825 14.9348 23.3337 15.7826 23.3337 16.6667V19.3333" stroke="black" stroke-width="1.33333" stroke-linecap="round" stroke-linejoin="round"/>
</svg>
