<svg width="40" height="40" viewBox="0 0 40 40" fill="none" xmlns="http://www.w3.org/2000/svg">
<rect width="40" height="40" rx="20" fill="#FFEDEC"/>
<path d="M18.8605 14.5733L13.2138 24C13.0974 24.2016 13.0358 24.4302 13.0352 24.663C13.0345 24.8958 13.0948 25.1248 13.2101 25.327C13.3254 25.5293 13.4917 25.6978 13.6923 25.8159C13.893 25.934 14.121 25.9974 14.3538 26H25.6472C25.88 25.9974 26.108 25.934 26.3087 25.8159C26.5094 25.6978 26.6756 25.5293 26.7909 25.327C26.9062 25.1248 26.9665 24.8958 26.9658 24.663C26.9652 24.4302 26.9036 24.2016 26.7872 24L21.1405 14.5733C21.0217 14.3774 20.8543 14.2154 20.6546 14.103C20.4549 13.9906 20.2297 13.9315 20.0005 13.9315C19.7713 13.9315 19.5461 13.9906 19.3464 14.103C19.1467 14.2154 18.9793 14.3774 18.8605 14.5733Z" stroke="#FC5662" stroke-width="1.33333" stroke-linecap="round" stroke-linejoin="round"/>
<path d="M20 18V20.6667" stroke="#FC5662" stroke-width="1.33333" stroke-linecap="round" stroke-linejoin="round"/>
<path d="M20 23.3333H20.0067" stroke="#FC5662" stroke-width="1.33333" stroke-linecap="round" stroke-linejoin="round"/>
</svg>
