<svg width="16" height="16" viewBox="0 0 16 16" fill="none" xmlns="http://www.w3.org/2000/svg">
<path d="M4.22899 11.7713C3.48314 11.0255 2.97522 10.0751 2.76945 9.04058C2.56369 8.00603 2.66932 6.93369 3.073 5.95916C3.47667 4.98464 4.16026 4.1517 5.03732 3.56568C5.91437 2.97966 6.94551 2.66687 8.00033 2.66687C9.05515 2.66687 10.0863 2.97966 10.9633 3.56568C11.8404 4.1517 12.524 4.98464 12.9277 5.95916C13.3313 6.93369 13.437 8.00603 13.2312 9.04058C13.0254 10.0751 12.5175 11.0255 11.7717 11.7713" stroke="black" stroke-width="1.33333" stroke-linecap="round" stroke-linejoin="round"/>
<path d="M7.99967 10.6667C8.36786 10.6667 8.66634 10.3682 8.66634 10C8.66634 9.63185 8.36786 9.33337 7.99967 9.33337C7.63148 9.33337 7.33301 9.63185 7.33301 10C7.33301 10.3682 7.63148 10.6667 7.99967 10.6667Z" stroke="black" stroke-width="1.33333" stroke-linecap="round" stroke-linejoin="round"/>
<path d="M8 6V9.33333" stroke="black" stroke-width="1.33333" stroke-linecap="round" stroke-linejoin="round"/>
</svg>
