<svg width="16" height="16" viewBox="0 0 16 16" fill="none" xmlns="http://www.w3.org/2000/svg">
<g clip-path="url(#clip0_58_760)">
<path d="M14.6667 11.2801V13.2801C14.6675 13.4658 14.6294 13.6496 14.555 13.8197C14.4807 13.9898 14.3716 14.1425 14.2348 14.268C14.0979 14.3935 13.9364 14.4891 13.7605 14.5486C13.5847 14.6081 13.3983 14.6302 13.2134 14.6134C11.1619 14.3905 9.19137 13.6895 7.46004 12.5668C5.84926 11.5432 4.48359 10.1776 3.46004 8.56677C2.33336 6.82758 1.6322 4.84744 1.41337 2.78677C1.39671 2.60242 1.41862 2.41661 1.4777 2.24119C1.53679 2.06576 1.63175 1.90456 1.75655 1.76785C1.88134 1.63114 2.03324 1.52191 2.20256 1.44712C2.37189 1.37233 2.55493 1.33361 2.74004 1.33344H4.74004C5.06357 1.33025 5.37723 1.44482 5.62254 1.65579C5.86786 1.86676 6.02809 2.15974 6.07337 2.48011C6.15779 3.12015 6.31434 3.74859 6.54004 4.35344C6.62973 4.59205 6.64915 4.85138 6.59597 5.10069C6.5428 5.35 6.41928 5.57885 6.24004 5.76011L5.39337 6.60677C6.34241 8.2758 7.72434 9.65774 9.39337 10.6068L10.24 9.76011C10.4213 9.58086 10.6501 9.45734 10.8994 9.40417C11.1488 9.351 11.4081 9.37041 11.6467 9.46011C12.2516 9.68581 12.88 9.84236 13.52 9.92677C13.8439 9.97246 14.1396 10.1356 14.3511 10.3851C14.5625 10.6346 14.6748 10.9532 14.6667 11.2801Z" stroke="black" stroke-width="1.33333" stroke-linecap="round" stroke-linejoin="round"/>
</g>
<defs>
<clipPath id="clip0_58_760">
<rect width="16" height="16" fill="white"/>
</clipPath>
</defs>
</svg>
