<svg width="16" height="16" viewBox="0 0 16 16" fill="none" xmlns="http://www.w3.org/2000/svg">
<path d="M13.3333 4.66663H2.66659C1.93021 4.66663 1.33325 5.26358 1.33325 5.99996V12.6666C1.33325 13.403 1.93021 14 2.66659 14H13.3333C14.0696 14 14.6666 13.403 14.6666 12.6666V5.99996C14.6666 5.26358 14.0696 4.66663 13.3333 4.66663Z" stroke="black" stroke-width="1.33333" stroke-linecap="round" stroke-linejoin="round"/>
<path d="M10.6666 14V3.33333C10.6666 2.97971 10.5261 2.64057 10.2761 2.39052C10.026 2.14048 9.68687 2 9.33325 2H6.66659C6.31296 2 5.97383 2.14048 5.72378 2.39052C5.47373 2.64057 5.33325 2.97971 5.33325 3.33333V14" stroke="black" stroke-width="1.33333" stroke-linecap="round" stroke-linejoin="round"/>
</svg>
